<svg width="1440" height="787" viewBox="0 0 1440 787" fill="none" xmlns="http://www.w3.org/2000/svg">
<g style="mix-blend-mode:color-burn">
<rect y="0.000244141" width="40" height="787" fill="url(#paint0_linear_15_117)"/>
<rect x="40" y="0.000244141" width="40" height="787" fill="url(#paint1_linear_15_117)"/>
<rect x="80" y="0.000244141" width="40" height="787" fill="url(#paint2_linear_15_117)"/>
<rect x="120" y="0.000244141" width="40" height="787" fill="url(#paint3_linear_15_117)"/>
<rect x="160" y="0.000244141" width="40" height="787" fill="url(#paint4_linear_15_117)"/>
<rect x="200" y="0.000244141" width="40" height="787" fill="url(#paint5_linear_15_117)"/>
<rect x="240" y="0.000244141" width="40" height="787" fill="url(#paint6_linear_15_117)"/>
<rect x="280" y="0.000244141" width="40" height="787" fill="url(#paint7_linear_15_117)"/>
<rect x="320" y="0.000244141" width="40" height="787" fill="url(#paint8_linear_15_117)"/>
<rect x="360" y="0.000244141" width="40" height="787" fill="url(#paint9_linear_15_117)"/>
<rect x="400" y="0.000244141" width="40" height="787" fill="url(#paint10_linear_15_117)"/>
<rect x="440" y="0.000244141" width="40" height="787" fill="url(#paint11_linear_15_117)"/>
<rect x="480" y="0.000244141" width="40" height="787" fill="url(#paint12_linear_15_117)"/>
<rect x="520" y="0.000244141" width="40" height="787" fill="url(#paint13_linear_15_117)"/>
<rect x="560" y="0.000244141" width="40" height="787" fill="url(#paint14_linear_15_117)"/>
<rect x="600" y="0.000244141" width="40" height="787" fill="url(#paint15_linear_15_117)"/>
<rect x="640" y="0.000244141" width="40" height="787" fill="url(#paint16_linear_15_117)"/>
<rect x="680" y="0.000244141" width="40" height="787" fill="url(#paint17_linear_15_117)"/>
<rect x="720" y="0.000244141" width="40" height="787" fill="url(#paint18_linear_15_117)"/>
<rect x="760" y="0.000244141" width="40" height="787" fill="url(#paint19_linear_15_117)"/>
<rect x="800" y="0.000244141" width="40" height="787" fill="url(#paint20_linear_15_117)"/>
<rect x="840" y="0.000244141" width="40" height="787" fill="url(#paint21_linear_15_117)"/>
<rect x="880" y="0.000244141" width="40" height="787" fill="url(#paint22_linear_15_117)"/>
<rect x="920" y="0.000244141" width="40" height="787" fill="url(#paint23_linear_15_117)"/>
<rect x="960" y="0.000244141" width="40" height="787" fill="url(#paint24_linear_15_117)"/>
<rect x="1000" y="0.000244141" width="40" height="787" fill="url(#paint25_linear_15_117)"/>
<rect x="1040" y="0.000244141" width="40" height="787" fill="url(#paint26_linear_15_117)"/>
<rect x="1080" y="0.000244141" width="40" height="787" fill="url(#paint27_linear_15_117)"/>
<rect x="1120" y="0.000244141" width="40" height="787" fill="url(#paint28_linear_15_117)"/>
<rect x="1160" y="0.000244141" width="40" height="787" fill="url(#paint29_linear_15_117)"/>
<rect x="1200" y="0.000244141" width="40" height="787" fill="url(#paint30_linear_15_117)"/>
<rect x="1240" y="0.000244141" width="40" height="787" fill="url(#paint31_linear_15_117)"/>
<rect x="1280" y="0.000244141" width="40" height="787" fill="url(#paint32_linear_15_117)"/>
<rect x="1320" y="0.000244141" width="40" height="787" fill="url(#paint33_linear_15_117)"/>
<rect x="1360" y="0.000244141" width="40" height="787" fill="url(#paint34_linear_15_117)"/>
<rect x="1400" y="0.000244141" width="40" height="787" fill="url(#paint35_linear_15_117)"/>
</g>
<defs>
<linearGradient id="paint0_linear_15_117" x1="0" y1="393.5" x2="40" y2="393.5" gradientUnits="userSpaceOnUse">
<stop stop-color="#6823ff"/>
<stop offset="1" stop-color="#3900b3"/>
</linearGradient>
<linearGradient id="paint1_linear_15_117" x1="40" y1="393.5" x2="80" y2="393.5" gradientUnits="userSpaceOnUse">
<stop stop-color="#6823ff"/>
<stop offset="1" stop-color="#3900b3"/>
</linearGradient>
<linearGradient id="paint2_linear_15_117" x1="80" y1="393.5" x2="120" y2="393.5" gradientUnits="userSpaceOnUse">
<stop stop-color="#6823ff"/>
<stop offset="1" stop-color="#3900b3"/>
</linearGradient>
<linearGradient id="paint3_linear_15_117" x1="120" y1="393.5" x2="160" y2="393.5" gradientUnits="userSpaceOnUse">
<stop stop-color="#6823ff"/>
<stop offset="1" stop-color="#3900b3"/>
</linearGradient>
<linearGradient id="paint4_linear_15_117" x1="160" y1="393.5" x2="200" y2="393.5" gradientUnits="userSpaceOnUse">
<stop stop-color="#6823ff"/>
<stop offset="1" stop-color="#3900b3"/>
</linearGradient>
<linearGradient id="paint5_linear_15_117" x1="200" y1="393.5" x2="240" y2="393.5" gradientUnits="userSpaceOnUse">
<stop stop-color="#6823ff"/>
<stop offset="1" stop-color="#3900b3"/>
</linearGradient>
<linearGradient id="paint6_linear_15_117" x1="240" y1="393.5" x2="280" y2="393.5" gradientUnits="userSpaceOnUse">
<stop stop-color="#6823ff"/>
<stop offset="1" stop-color="#3900b3"/>
</linearGradient>
<linearGradient id="paint7_linear_15_117" x1="280" y1="393.5" x2="320" y2="393.5" gradientUnits="userSpaceOnUse">
<stop stop-color="#6823ff"/>
<stop offset="1" stop-color="#3900b3"/>
</linearGradient>
<linearGradient id="paint8_linear_15_117" x1="320" y1="393.5" x2="360" y2="393.5" gradientUnits="userSpaceOnUse">
<stop stop-color="#6823ff"/>
<stop offset="1" stop-color="#3900b3"/>
</linearGradient>
<linearGradient id="paint9_linear_15_117" x1="360" y1="393.5" x2="400" y2="393.5" gradientUnits="userSpaceOnUse">
<stop stop-color="#6823ff"/>
<stop offset="1" stop-color="#3900b3"/>
</linearGradient>
<linearGradient id="paint10_linear_15_117" x1="400" y1="393.5" x2="440" y2="393.5" gradientUnits="userSpaceOnUse">
<stop stop-color="#6823ff"/>
<stop offset="1" stop-color="#3900b3"/>
</linearGradient>
<linearGradient id="paint11_linear_15_117" x1="440" y1="393.5" x2="480" y2="393.5" gradientUnits="userSpaceOnUse">
<stop stop-color="#6823ff"/>
<stop offset="1" stop-color="#3900b3"/>
</linearGradient>
<linearGradient id="paint12_linear_15_117" x1="480" y1="393.5" x2="520" y2="393.5" gradientUnits="userSpaceOnUse">
<stop stop-color="#6823ff"/>
<stop offset="1" stop-color="#3900b3"/>
</linearGradient>
<linearGradient id="paint13_linear_15_117" x1="520" y1="393.5" x2="560" y2="393.5" gradientUnits="userSpaceOnUse">
<stop stop-color="#6823ff"/>
<stop offset="1" stop-color="#3900b3"/>
</linearGradient>
<linearGradient id="paint14_linear_15_117" x1="560" y1="393.5" x2="600" y2="393.5" gradientUnits="userSpaceOnUse">
<stop stop-color="#6823ff"/>
<stop offset="1" stop-color="#3900b3"/>
</linearGradient>
<linearGradient id="paint15_linear_15_117" x1="600" y1="393.5" x2="640" y2="393.5" gradientUnits="userSpaceOnUse">
<stop stop-color="#6823ff"/>
<stop offset="1" stop-color="#3900b3"/>
</linearGradient>
<linearGradient id="paint16_linear_15_117" x1="640" y1="393.5" x2="680" y2="393.5" gradientUnits="userSpaceOnUse">
<stop stop-color="#6823ff"/>
<stop offset="1" stop-color="#3900b3"/>
</linearGradient>
<linearGradient id="paint17_linear_15_117" x1="680" y1="393.5" x2="720" y2="393.5" gradientUnits="userSpaceOnUse">
<stop stop-color="#6823ff"/>
<stop offset="1" stop-color="#3900b3"/>
</linearGradient>
<linearGradient id="paint18_linear_15_117" x1="720" y1="393.5" x2="760" y2="393.5" gradientUnits="userSpaceOnUse">
<stop stop-color="#6823ff"/>
<stop offset="1" stop-color="#3900b3"/>
</linearGradient>
<linearGradient id="paint19_linear_15_117" x1="760" y1="393.5" x2="800" y2="393.5" gradientUnits="userSpaceOnUse">
<stop stop-color="#6823ff"/>
<stop offset="1" stop-color="#3900b3"/>
</linearGradient>
<linearGradient id="paint20_linear_15_117" x1="800" y1="393.5" x2="840" y2="393.5" gradientUnits="userSpaceOnUse">
<stop stop-color="#6823ff"/>
<stop offset="1" stop-color="#3900b3"/>
</linearGradient>
<linearGradient id="paint21_linear_15_117" x1="840" y1="393.5" x2="880" y2="393.5" gradientUnits="userSpaceOnUse">
<stop stop-color="#6823ff"/>
<stop offset="1" stop-color="#3900b3"/>
</linearGradient>
<linearGradient id="paint22_linear_15_117" x1="880" y1="393.5" x2="920" y2="393.5" gradientUnits="userSpaceOnUse">
<stop stop-color="#6823ff"/>
<stop offset="1" stop-color="#3900b3"/>
</linearGradient>
<linearGradient id="paint23_linear_15_117" x1="920" y1="393.5" x2="960" y2="393.5" gradientUnits="userSpaceOnUse">
<stop stop-color="#6823ff"/>
<stop offset="1" stop-color="#3900b3"/>
</linearGradient>
<linearGradient id="paint24_linear_15_117" x1="960" y1="393.5" x2="1000" y2="393.5" gradientUnits="userSpaceOnUse">
<stop stop-color="#6823ff"/>
<stop offset="1" stop-color="#3900b3"/>
</linearGradient>
<linearGradient id="paint25_linear_15_117" x1="1000" y1="393.5" x2="1040" y2="393.5" gradientUnits="userSpaceOnUse">
<stop stop-color="#6823ff"/>
<stop offset="1" stop-color="#3900b3"/>
</linearGradient>
<linearGradient id="paint26_linear_15_117" x1="1040" y1="393.5" x2="1080" y2="393.5" gradientUnits="userSpaceOnUse">
<stop stop-color="#6823ff"/>
<stop offset="1" stop-color="#3900b3"/>
</linearGradient>
<linearGradient id="paint27_linear_15_117" x1="1080" y1="393.5" x2="1120" y2="393.5" gradientUnits="userSpaceOnUse">
<stop stop-color="#6823ff"/>
<stop offset="1" stop-color="#3900b3"/>
</linearGradient>
<linearGradient id="paint28_linear_15_117" x1="1120" y1="393.5" x2="1160" y2="393.5" gradientUnits="userSpaceOnUse">
<stop stop-color="#6823ff"/>
<stop offset="1" stop-color="#3900b3"/>
</linearGradient>
<linearGradient id="paint29_linear_15_117" x1="1160" y1="393.5" x2="1200" y2="393.5" gradientUnits="userSpaceOnUse">
<stop stop-color="#6823ff"/>
<stop offset="1" stop-color="#3900b3"/>
</linearGradient>
<linearGradient id="paint30_linear_15_117" x1="1200" y1="393.5" x2="1240" y2="393.5" gradientUnits="userSpaceOnUse">
<stop stop-color="#6823ff"/>
<stop offset="1" stop-color="#3900b3"/>
</linearGradient>
<linearGradient id="paint31_linear_15_117" x1="1240" y1="393.5" x2="1280" y2="393.5" gradientUnits="userSpaceOnUse">
<stop stop-color="#6823ff"/>
<stop offset="1" stop-color="#3900b3"/>
</linearGradient>
<linearGradient id="paint32_linear_15_117" x1="1280" y1="393.5" x2="1320" y2="393.5" gradientUnits="userSpaceOnUse">
<stop stop-color="#6823ff"/>
<stop offset="1" stop-color="#3900b3"/>
</linearGradient>
<linearGradient id="paint33_linear_15_117" x1="1320" y1="393.5" x2="1360" y2="393.5" gradientUnits="userSpaceOnUse">
<stop stop-color="#6823ff"/>
<stop offset="1" stop-color="#3900b3"/>
</linearGradient>
<linearGradient id="paint34_linear_15_117" x1="1360" y1="393.5" x2="1400" y2="393.5" gradientUnits="userSpaceOnUse">
<stop stop-color="#6823ff"/>
<stop offset="1" stop-color="#3900b3"/>
</linearGradient>
<linearGradient id="paint35_linear_15_117" x1="1400" y1="393.5" x2="1440" y2="393.5" gradientUnits="userSpaceOnUse">
<stop stop-color="#6823ff"/>
<stop offset="1" stop-color="#3900b3"/>
</linearGradient>
</defs>
</svg>
