<svg width="480" height="904" viewBox="0 0 480 904" fill="none" xmlns="http://www.w3.org/2000/svg">
<g style="mix-blend-mode:color-burn">
<rect x="-12" y="-57.9998" width="40" height="962" fill="url(#paint0_linear_15_354)"/>
<rect x="28" y="-57.9998" width="40" height="962" fill="url(#paint1_linear_15_354)"/>
<rect x="68" y="-57.9998" width="40" height="962" fill="url(#paint2_linear_15_354)"/>
<rect x="108" y="-57.9998" width="40" height="962" fill="url(#paint3_linear_15_354)"/>
<rect x="148" y="-57.9998" width="40" height="962" fill="url(#paint4_linear_15_354)"/>
<rect x="188" y="-57.9998" width="40" height="962" fill="url(#paint5_linear_15_354)"/>
<rect x="228" y="-57.9998" width="40" height="962" fill="url(#paint6_linear_15_354)"/>
<rect x="268" y="-57.9998" width="40" height="962" fill="url(#paint7_linear_15_354)"/>
<rect x="308" y="-57.9998" width="40" height="962" fill="url(#paint8_linear_15_354)"/>
<rect x="348" y="-57.9998" width="40" height="962" fill="url(#paint9_linear_15_354)"/>
<rect x="388" y="-57.9998" width="40" height="962" fill="url(#paint10_linear_15_354)"/>
<rect x="428" y="-57.9998" width="40" height="962" fill="url(#paint11_linear_15_354)"/>
<rect x="468" y="-57.9998" width="40" height="962" fill="url(#paint12_linear_15_354)"/>
</g>
<defs>
<linearGradient id="paint0_linear_15_354" x1="-12" y1="423" x2="28" y2="423" gradientUnits="userSpaceOnUse">
<stop stop-color="#6823ff"/>
<stop offset="1" stop-color="#3900b3"/>
</linearGradient>
<linearGradient id="paint1_linear_15_354" x1="28" y1="423" x2="68" y2="423" gradientUnits="userSpaceOnUse">
<stop stop-color="#6823ff"/>
<stop offset="1" stop-color="#3900b3"/>
</linearGradient>
<linearGradient id="paint2_linear_15_354" x1="68" y1="423" x2="108" y2="423" gradientUnits="userSpaceOnUse">
<stop stop-color="#6823ff"/>
<stop offset="1" stop-color="#3900b3"/>
</linearGradient>
<linearGradient id="paint3_linear_15_354" x1="108" y1="423" x2="148" y2="423" gradientUnits="userSpaceOnUse">
<stop stop-color="#6823ff"/>
<stop offset="1" stop-color="#3900b3"/>
</linearGradient>
<linearGradient id="paint4_linear_15_354" x1="148" y1="423" x2="188" y2="423" gradientUnits="userSpaceOnUse">
<stop stop-color="#6823ff"/>
<stop offset="1" stop-color="#3900b3"/>
</linearGradient>
<linearGradient id="paint5_linear_15_354" x1="188" y1="423" x2="228" y2="423" gradientUnits="userSpaceOnUse">
<stop stop-color="#6823ff"/>
<stop offset="1" stop-color="#3900b3"/>
</linearGradient>
<linearGradient id="paint6_linear_15_354" x1="228" y1="423" x2="268" y2="423" gradientUnits="userSpaceOnUse">
<stop stop-color="#6823ff"/>
<stop offset="1" stop-color="#3900b3"/>
</linearGradient>
<linearGradient id="paint7_linear_15_354" x1="268" y1="423" x2="308" y2="423" gradientUnits="userSpaceOnUse">
<stop stop-color="#6823ff"/>
<stop offset="1" stop-color="#3900b3"/>
</linearGradient>
<linearGradient id="paint8_linear_15_354" x1="308" y1="423" x2="348" y2="423" gradientUnits="userSpaceOnUse">
<stop stop-color="#6823ff"/>
<stop offset="1" stop-color="#3900b3"/>
</linearGradient>
<linearGradient id="paint9_linear_15_354" x1="348" y1="423" x2="388" y2="423" gradientUnits="userSpaceOnUse">
<stop stop-color="#6823ff"/>
<stop offset="1" stop-color="#3900b3"/>
</linearGradient>
<linearGradient id="paint10_linear_15_354" x1="388" y1="423" x2="428" y2="423" gradientUnits="userSpaceOnUse">
<stop stop-color="#6823ff"/>
<stop offset="1" stop-color="#3900b3"/>
</linearGradient>
<linearGradient id="paint11_linear_15_354" x1="428" y1="423" x2="468" y2="423" gradientUnits="userSpaceOnUse">
<stop stop-color="#6823ff"/>
<stop offset="1" stop-color="#3900b3"/>
</linearGradient>
<linearGradient id="paint12_linear_15_354" x1="468" y1="423" x2="508" y2="423" gradientUnits="userSpaceOnUse">
<stop stop-color="#6823ff"/>
<stop offset="1" stop-color="#3900b3"/>
</linearGradient>
</defs>
</svg>
