<svg width="768" height="1010" viewBox="0 0 768 1010" fill="none" xmlns="http://www.w3.org/2000/svg">
<g style="mix-blend-mode:color-burn">
<rect x="-26" y="-3.99976" width="40" height="851" fill="url(#paint0_linear_15_221)"/>
<rect x="14" y="-3.99976" width="40" height="851" fill="url(#paint1_linear_15_221)"/>
<rect x="54" y="-3.99976" width="40" height="851" fill="url(#paint2_linear_15_221)"/>
<rect x="94" y="-3.99976" width="40" height="851" fill="url(#paint3_linear_15_221)"/>
<rect x="134" y="-3.99976" width="40" height="851" fill="url(#paint4_linear_15_221)"/>
<rect x="174" y="-3.99976" width="40" height="851" fill="url(#paint5_linear_15_221)"/>
<rect x="214" y="-3.99976" width="40" height="851" fill="url(#paint6_linear_15_221)"/>
<rect x="254" y="-3.99976" width="40" height="851" fill="url(#paint7_linear_15_221)"/>
<rect x="294" y="-3.99976" width="40" height="851" fill="url(#paint8_linear_15_221)"/>
<rect x="334" y="-3.99976" width="40" height="851" fill="url(#paint9_linear_15_221)"/>
<rect x="374" y="-3.99976" width="40" height="851" fill="url(#paint10_linear_15_221)"/>
<rect x="414" y="-3.99976" width="40" height="851" fill="url(#paint11_linear_15_221)"/>
<rect x="454" y="-3.99976" width="40" height="851" fill="url(#paint12_linear_15_221)"/>
<rect x="494" y="-3.99976" width="40" height="851" fill="url(#paint13_linear_15_221)"/>
<rect x="534" y="-3.99976" width="40" height="851" fill="url(#paint14_linear_15_221)"/>
<rect x="574" y="-3.99976" width="40" height="851" fill="url(#paint15_linear_15_221)"/>
<rect x="614" y="-3.99976" width="40" height="851" fill="url(#paint16_linear_15_221)"/>
<rect x="654" y="-3.99976" width="40" height="851" fill="url(#paint17_linear_15_221)"/>
<rect x="694" y="-3.99976" width="40" height="851" fill="url(#paint18_linear_15_221)"/>
<rect x="734" y="-3.99976" width="40" height="851" fill="url(#paint19_linear_15_221)"/>
</g>
<defs>
<linearGradient id="paint0_linear_15_221" x1="-26" y1="421.5" x2="14" y2="421.5" gradientUnits="userSpaceOnUse">
<stop stop-color="#6823ff"/>
<stop offset="1" stop-color="#3900b3"/>
</linearGradient>
<linearGradient id="paint1_linear_15_221" x1="14" y1="421.5" x2="54" y2="421.5" gradientUnits="userSpaceOnUse">
<stop stop-color="#6823ff"/>
<stop offset="1" stop-color="#3900b3"/>
</linearGradient>
<linearGradient id="paint2_linear_15_221" x1="54" y1="421.5" x2="94" y2="421.5" gradientUnits="userSpaceOnUse">
<stop stop-color="#6823ff"/>
<stop offset="1" stop-color="#3900b3"/>
</linearGradient>
<linearGradient id="paint3_linear_15_221" x1="94" y1="421.5" x2="134" y2="421.5" gradientUnits="userSpaceOnUse">
<stop stop-color="#6823ff"/>
<stop offset="1" stop-color="#3900b3"/>
</linearGradient>
<linearGradient id="paint4_linear_15_221" x1="134" y1="421.5" x2="174" y2="421.5" gradientUnits="userSpaceOnUse">
<stop stop-color="#6823ff"/>
<stop offset="1" stop-color="#3900b3"/>
</linearGradient>
<linearGradient id="paint5_linear_15_221" x1="174" y1="421.5" x2="214" y2="421.5" gradientUnits="userSpaceOnUse">
<stop stop-color="#6823ff"/>
<stop offset="1" stop-color="#3900b3"/>
</linearGradient>
<linearGradient id="paint6_linear_15_221" x1="214" y1="421.5" x2="254" y2="421.5" gradientUnits="userSpaceOnUse">
<stop stop-color="#6823ff"/>
<stop offset="1" stop-color="#3900b3"/>
</linearGradient>
<linearGradient id="paint7_linear_15_221" x1="254" y1="421.5" x2="294" y2="421.5" gradientUnits="userSpaceOnUse">
<stop stop-color="#6823ff"/>
<stop offset="1" stop-color="#3900b3"/>
</linearGradient>
<linearGradient id="paint8_linear_15_221" x1="294" y1="421.5" x2="334" y2="421.5" gradientUnits="userSpaceOnUse">
<stop stop-color="#6823ff"/>
<stop offset="1" stop-color="#3900b3"/>
</linearGradient>
<linearGradient id="paint9_linear_15_221" x1="334" y1="421.5" x2="374" y2="421.5" gradientUnits="userSpaceOnUse">
<stop stop-color="#6823ff"/>
<stop offset="1" stop-color="#3900b3"/>
</linearGradient>
<linearGradient id="paint10_linear_15_221" x1="374" y1="421.5" x2="414" y2="421.5" gradientUnits="userSpaceOnUse">
<stop stop-color="#6823ff"/>
<stop offset="1" stop-color="#3900b3"/>
</linearGradient>
<linearGradient id="paint11_linear_15_221" x1="414" y1="421.5" x2="454" y2="421.5" gradientUnits="userSpaceOnUse">
<stop stop-color="#6823ff"/>
<stop offset="1" stop-color="#3900b3"/>
</linearGradient>
<linearGradient id="paint12_linear_15_221" x1="454" y1="421.5" x2="494" y2="421.5" gradientUnits="userSpaceOnUse">
<stop stop-color="#6823ff"/>
<stop offset="1" stop-color="#3900b3"/>
</linearGradient>
<linearGradient id="paint13_linear_15_221" x1="494" y1="421.5" x2="534" y2="421.5" gradientUnits="userSpaceOnUse">
<stop stop-color="#6823ff"/>
<stop offset="1" stop-color="#3900b3"/>
</linearGradient>
<linearGradient id="paint14_linear_15_221" x1="534" y1="421.5" x2="574" y2="421.5" gradientUnits="userSpaceOnUse">
<stop stop-color="#6823ff"/>
<stop offset="1" stop-color="#3900b3"/>
</linearGradient>
<linearGradient id="paint15_linear_15_221" x1="574" y1="421.5" x2="614" y2="421.5" gradientUnits="userSpaceOnUse">
<stop stop-color="#6823ff"/>
<stop offset="1" stop-color="#3900b3"/>
</linearGradient>
<linearGradient id="paint16_linear_15_221" x1="614" y1="421.5" x2="654" y2="421.5" gradientUnits="userSpaceOnUse">
<stop stop-color="#6823ff"/>
<stop offset="1" stop-color="#3900b3"/>
</linearGradient>
<linearGradient id="paint17_linear_15_221" x1="654" y1="421.5" x2="694" y2="421.5" gradientUnits="userSpaceOnUse">
<stop stop-color="#6823ff"/>
<stop offset="1" stop-color="#3900b3"/>
</linearGradient>
<linearGradient id="paint18_linear_15_221" x1="694" y1="421.5" x2="734" y2="421.5" gradientUnits="userSpaceOnUse">
<stop stop-color="#6823ff"/>
<stop offset="1" stop-color="#3900b3"/>
</linearGradient>
<linearGradient id="paint19_linear_15_221" x1="734" y1="421.5" x2="774" y2="421.5" gradientUnits="userSpaceOnUse">
<stop stop-color="#6823ff"/>
<stop offset="1" stop-color="#3900b3"/>
</linearGradient>
</defs>
</svg>
