<svg xmlns="http://www.w3.org/2000/svg" width="518" height="289" fill="none"><g filter="url(#a)"><path fill="url(#b)" fill-rule="evenodd" d="M208.144 129.511c-28.722 23.858-63.656 37.069-99.681 47.395-55.2 15.823-116.756 53.128-165.684 28.67-47.118-23.555-68.248-88.282-56.003-139.49 12.347-51.633 88.85-66.706 116.5-113.51 18.762-31.759-8.664-73.592 12.149-104.258 22.327-32.9 62.755-50.486 101.389-63.038 43.401-14.101 87.879-17.035 132.409-12.925 58.917 5.438 154.78-14.014 167.114 40.571 14.662 64.885-81.083 110.025-119.863 168.532-15.612 23.554-25.351 48.136-39.777 72.316-15.644 26.22-24.56 55.807-48.553 75.737Z" clip-rule="evenodd"/></g><defs><linearGradient id="b" x1="148.122" x2="87.284" y1="148.419" y2="-200.112" gradientUnits="userSpaceOnUse"><stop stop-color="#6823FF"/><stop offset="1" stop-color="#fff" stop-opacity="0"/></linearGradient><filter id="a" width="734.491" height="643.019" x="-216.64" y="-329.353" color-interpolation-filters="sRGB" filterUnits="userSpaceOnUse"><feFlood flood-opacity="0" result="BackgroundImageFix"/><feBlend in="SourceGraphic" in2="BackgroundImageFix" result="shape"/><feGaussianBlur result="effect1_foregroundBlur_15_308" stdDeviation="50"/></filter></defs></svg>