<svg xmlns="http://www.w3.org/2000/svg" width="652" height="318" fill="none"><g filter="url(#a)"><path fill="url(#b)" fill-rule="evenodd" d="M342.144 222.511c-28.721 23.858-63.656 37.069-99.681 47.395-55.2 15.823-116.756 53.128-165.684 28.67-47.118-23.555-68.247-88.282-56.002-139.49 12.346-51.633 88.85-66.706 116.5-113.51 18.762-31.759-8.664-73.592 12.148-104.258 22.328-32.9 62.755-50.486 101.39-63.038 43.4-14.101 87.879-17.035 132.409-12.925 58.916 5.438 154.779-14.014 167.113 40.57 14.662 64.886-81.083 110.026-119.862 168.533-15.612 23.554-25.351 48.135-39.778 72.316-15.643 26.221-24.56 55.807-48.553 75.737Z" clip-rule="evenodd"/></g><defs><linearGradient id="b" x1="282.122" x2="221.284" y1="241.419" y2="-107.112" gradientUnits="userSpaceOnUse"><stop stop-color="#6823FF"/><stop offset="1" stop-color="#fff" stop-opacity="0"/></linearGradient><filter id="a" width="734.491" height="643.019" x="-82.64" y="-236.353" color-interpolation-filters="sRGB" filterUnits="userSpaceOnUse"><feFlood flood-opacity="0" result="BackgroundImageFix"/><feBlend in="SourceGraphic" in2="BackgroundImageFix" result="shape"/><feGaussianBlur result="effect1_foregroundBlur_15_212" stdDeviation="50"/></filter></defs></svg>