<svg xmlns="http://www.w3.org/2000/svg" width="383" height="829" fill="none"><g filter="url(#a)"><path fill="url(#b)" fill-rule="evenodd" d="M710.796 331.038c-19.923 67.805-61.217 125.058-107.358 178.837-70.702 82.405-128.324 205.665-232.526 217.309-100.349 11.213-203.808-70.172-239.606-164.55-36.093-95.16 69.294-198.429 62.747-301.733-4.442-70.097-93.204-108.437-93.207-178.913-.003-75.61 45.304-145.53 93.193-205.563 53.795-67.439 121.358-118.179 196.605-157.734 99.558-52.333 231.004-182.635 309.531-108.323 93.346 88.335-10.188 259.497-8.709 392.997.595 53.744 11.639 103.047 14.796 156.563 3.424 58.033 21.177 114.468 4.534 171.11Z" clip-rule="evenodd"/></g><defs><linearGradient id="b" x1="685.5" x2="172.433" y1="484" y2="-77.95" gradientUnits="userSpaceOnUse"><stop stop-color="#6823FF"/><stop offset="1" stop-color="#fff" stop-opacity="0"/></linearGradient><filter id="a" width="838.375" height="1340.22" x=".846" y="-511.999" color-interpolation-filters="sRGB" filterUnits="userSpaceOnUse"><feFlood flood-opacity="0" result="BackgroundImageFix"/><feBlend in="SourceGraphic" in2="BackgroundImageFix" result="shape"/><feGaussianBlur result="effect1_foregroundBlur_15_352" stdDeviation="50"/></filter></defs></svg>