<svg xmlns="http://www.w3.org/2000/svg" width="1132" height="897" fill="none"><g filter="url(#a)"><path fill="url(#b)" fill-rule="evenodd" d="M404.912 164.291c69.03-30.314 144.434-39.848 220.405-43.978 116.409-6.327 256.868-47.384 339.212 13.56 79.301 58.691 85.531 178.681 33.882 262.574-52.078 84.587-209.701 81.499-289.063 151.905-53.85 47.773-22.921 130.57-80.185 175.673-61.435 48.388-149.938 63.393-232.213 70.378-92.425 7.847-180.91-4.029-265.681-28.107-112.158-31.857-309.973-34.749-304.515-133.848 6.489-117.799 217.983-159.376 325.425-245.778 43.254-34.784 75.59-73.584 116.867-109.903 44.76-39.385 78.2-87.153 135.866-112.476Z" clip-rule="evenodd"/></g><defs><linearGradient id="b" x1="545.741" x2="510.596" y1="202.936" y2="782.658" gradientUnits="userSpaceOnUse"><stop stop-color="#6823FF"/><stop offset="1" stop-color="#fff" stop-opacity="0"/></linearGradient><filter id="a" width="1405.09" height="895.882" x="-273.356" y=".926" color-interpolation-filters="sRGB" filterUnits="userSpaceOnUse"><feFlood flood-opacity="0" result="BackgroundImageFix"/><feBlend in="SourceGraphic" in2="BackgroundImageFix" result="shape"/><feGaussianBlur result="effect1_foregroundBlur_15_8" stdDeviation="50"/></filter></defs></svg>