<svg xmlns="http://www.w3.org/2000/svg" width="574" height="390" fill="none"><g filter="url(#a)"><path fill="url(#b)" fill-rule="evenodd" d="M264.022 205.592c-28.722 23.858-63.656 37.07-99.681 47.396-55.2 15.822-116.756 53.128-165.684 28.669-47.118-23.554-68.248-88.281-56.002-139.49C-45 90.534 31.504 75.462 59.154 28.657 77.916-3.102 50.49-44.935 71.303-75.601c22.328-32.9 62.755-50.485 101.389-63.038 43.401-14.101 87.879-17.035 132.41-12.925 58.916 5.438 154.779-14.013 167.113 40.571C486.877-46.107 391.132-.968 352.352 57.539c-15.611 23.554-25.35 48.136-39.777 72.316-15.644 26.221-24.56 55.807-48.553 75.737Z" clip-rule="evenodd"/></g><defs><linearGradient id="b" x1="204" x2="143.162" y1="224.5" y2="-124.031" gradientUnits="userSpaceOnUse"><stop stop-color="#6823FF"/><stop offset="1" stop-color="#fff" stop-opacity="0"/></linearGradient><filter id="a" width="734.491" height="643.02" x="-160.762" y="-253.271" color-interpolation-filters="sRGB" filterUnits="userSpaceOnUse"><feFlood flood-opacity="0" result="BackgroundImageFix"/><feBlend in="SourceGraphic" in2="BackgroundImageFix" result="shape"/><feGaussianBlur result="effect1_foregroundBlur_15_116" stdDeviation="50"/></filter></defs></svg>