<svg xmlns="http://www.w3.org/2000/svg" width="267" height="799" fill="#6823ff"><g filter="url(#a)"><path fill="url(#b)" fill-rule="evenodd" d="M-371.648 155.305c59.275-26.03 124.023-34.217 189.259-37.763 99.959-5.433 220.569-40.688 291.276 11.644 68.093 50.397 73.445 153.43 29.094 225.468-44.718 72.634-180.067 69.982-248.214 130.439-46.24 41.022-19.681 112.118-68.854 150.847-52.753 41.55-128.749 54.435-199.398 60.433-79.364 6.738-155.344-3.46-228.135-24.135-96.309-27.355-266.17-29.839-261.483-114.933 5.571-101.153 187.178-136.854 279.437-211.046 37.142-29.869 64.909-63.186 100.352-94.373 38.435-33.819 67.149-74.836 116.666-96.581Z" clip-rule="evenodd"/></g><defs><linearGradient id="b" x1="-250.72" x2="-280.898" y1="188.489" y2="686.288" gradientUnits="userSpaceOnUse"><stop stop-color="#6823FF"/><stop offset="1" stop-color="#fff" stop-opacity="0"/></linearGradient><filter id="a" width="1234.79" height="797.543" x="-968.198" y=".894" color-interpolation-filters="sRGB" filterUnits="userSpaceOnUse"><feFlood flood-opacity="0" result="BackgroundImageFix"/><feBlend in="SourceGraphic" in2="BackgroundImageFix" result="shape"/><feGaussianBlur result="effect1_foregroundBlur_15_351" stdDeviation="50"/></filter></defs></svg>