<svg xmlns="http://www.w3.org/2000/svg" width="684" height="541" fill="none"><g filter="url(#a)"><path fill="url(#b)" fill-rule="evenodd" d="M339.311 342.902c-33.448 27.784-74.132 43.17-116.086 55.196-64.284 18.426-135.97 61.871-192.95 33.387-54.872-27.431-79.48-102.81-65.219-162.446 14.378-60.13 103.472-77.683 135.673-132.191 21.849-36.985-10.09-85.702 14.147-121.415 26.003-38.315 73.083-58.794 118.076-73.412 50.542-16.422 102.341-19.84 154.199-15.053 68.613 6.333 180.252-16.32 194.616 47.248 17.075 75.564-94.427 128.132-139.589 196.268-18.181 27.43-29.523 56.057-46.323 84.217-18.218 30.536-28.602 64.991-56.544 88.201Z" clip-rule="evenodd"/></g><defs><linearGradient id="b" x1="269.411" x2="198.562" y1="364.922" y2="-40.967" gradientUnits="userSpaceOnUse"><stop stop-color="#6823FF"/><stop offset="1" stop-color="#fff" stop-opacity="0"/></linearGradient><filter id="a" width="822.452" height="715.928" x="-138.923" y="-175.02" color-interpolation-filters="sRGB" filterUnits="userSpaceOnUse"><feFlood flood-opacity="0" result="BackgroundImageFix"/><feBlend in="SourceGraphic" in2="BackgroundImageFix" result="shape"/><feGaussianBlur result="effect1_foregroundBlur_15_10" stdDeviation="50"/></filter></defs></svg>