<svg xmlns="http://www.w3.org/2000/svg" width="944" height="1120" fill="none"><g filter="url(#a)"><path fill="url(#b)" fill-rule="evenodd" d="M810.458 556.538c-23.202 78.963-71.291 145.639-125.027 208.269-82.336 95.965-149.441 239.513-270.792 253.073-116.864 13.06-237.35-81.722-279.038-191.632-42.034-110.821 80.698-231.084 73.073-351.39-5.173-81.632-108.543-126.282-108.546-208.357-.004-88.053 52.76-169.479 108.529-239.392C271.306-51.43 349.988-110.52 437.618-156.583 553.56-217.53 706.639-369.275 798.089-282.734 906.797-179.861 786.224 19.47 787.947 174.94c.693 62.588 13.555 120.005 17.231 182.328 3.987 67.584 24.662 133.306 5.28 199.27Z" clip-rule="evenodd"/></g><defs><linearGradient id="b" x1="780.999" x2="183.496" y1="734.673" y2="80.243" gradientUnits="userSpaceOnUse"><stop stop-color="#6823FF"/><stop offset="1" stop-color="#fff" stop-opacity="0"/></linearGradient><filter id="a" width="943.433" height="1527.87" x=".128" y="-408.781" color-interpolation-filters="sRGB" filterUnits="userSpaceOnUse"><feFlood flood-opacity="0" result="BackgroundImageFix"/><feBlend in="SourceGraphic" in2="BackgroundImageFix" result="shape"/><feGaussianBlur result="effect1_foregroundBlur_15_9" stdDeviation="50"/></filter></defs></svg>