<svg aria-hidden="true" style="position: absolute; width: 0; height: 0; overflow: hidden;" version="1.1" xmlns="http://www.w3.org/2000/svg" xmlns:xlink="http://www.w3.org/1999/xlink">
<defs>
<symbol id="icon-burger" viewBox="0 0 44 32">
<path d="M41.78 13.187h-39.452c-1.286 0-2.328 1.122-2.328 2.505v0.264c0 1.384 1.042 2.506 2.328 2.506h39.452c1.285 0 2.327-1.122 2.327-2.505v-0.264c0-1.384-1.042-2.505-2.327-2.505zM41.78 26.375h-39.452c-1.286 0-2.328 1.122-2.328 2.506v0.264c0 1.384 1.042 2.506 2.328 2.506h39.452c1.285 0 2.327-1.122 2.327-2.506v-0.264c0-1.384-1.042-2.506-2.327-2.506zM41.78 0h-39.452c-1.286 0-2.328 1.122-2.328 2.506v0.264c0 1.384 1.042 2.506 2.328 2.506h39.452c1.285 0 2.327-1.122 2.327-2.506v-0.264c0.001-1.384-1.042-2.506-2.327-2.506z"></path>
</symbol>
<symbol id="icon-x-close" viewBox="0 0 32 32">
<path stroke-linejoin="round" stroke-linecap="round" stroke-miterlimit="4" stroke-width="2.6667" d="M24 8l-16 16M8 8l16 16"></path>
</symbol>
</defs>
</svg>
